<svg width="277" height="40" viewBox="0 0 277 40" fill="none" xmlns="http://www.w3.org/2000/svg">
<path fill-rule="evenodd" clip-rule="evenodd" d="M140.495 2.51811C139.165 2.50829 137.835 2.50829 136.504 2.51811L136.49 0.518164C137.83 0.508268 139.17 0.508268 140.51 0.518164L140.495 2.51811ZM132.514 2.57705C131.183 2.60652 129.854 2.64581 128.524 2.69493L128.45 0.696287C129.79 0.646811 131.129 0.607229 132.469 0.577543L132.514 2.57705ZM148.476 2.69493C147.146 2.64581 145.816 2.60652 144.486 2.57705L144.53 0.577543C145.87 0.607233 147.21 0.646814 148.549 0.696295L148.476 2.69493ZM124.537 2.8717C123.208 2.94044 121.88 3.019 120.552 3.10738L120.419 1.1118C121.757 1.02276 123.095 0.943621 124.434 0.874369L124.537 2.8717ZM156.447 3.10739C155.12 3.01901 153.791 2.94045 152.463 2.87171L152.566 0.874376C153.905 0.943628 155.243 1.02277 156.58 1.1118L156.447 3.10739ZM116.573 3.40182C115.247 3.50978 113.921 3.62755 112.597 3.75512L112.405 1.76433C113.739 1.63581 115.074 1.51717 116.41 1.40842L116.573 3.40182ZM164.403 3.75513C163.078 3.62756 161.753 3.50979 160.427 3.40183L160.589 1.40843C161.925 1.51719 163.26 1.63582 164.595 1.76435L164.403 3.75513ZM108.627 4.16701C107.305 4.31409 105.984 4.47096 104.664 4.63763L104.413 2.65338C105.743 2.48547 107.074 2.32744 108.406 2.17927L108.627 4.16701ZM172.336 4.63765C171.016 4.47098 169.694 4.31411 168.372 4.16703L168.594 2.17929C169.925 2.32746 171.256 2.48549 172.587 2.65339L172.336 4.63765ZM100.708 5.16669C99.3909 5.35275 98.075 5.54859 96.7603 5.75421L96.4512 3.77823C97.7757 3.57109 99.1014 3.3738 100.428 3.18635L100.708 5.16669ZM180.239 5.75423C178.925 5.54861 177.609 5.35277 176.292 5.16671L176.571 3.18638C177.898 3.37382 179.224 3.57111 180.548 3.77825L180.239 5.75423ZM92.8214 6.40008C91.5108 6.62496 90.2014 6.85959 88.8934 7.10398L88.5261 5.138C89.8438 4.89181 91.1628 4.65543 92.4832 4.42888L92.8214 6.40008ZM188.106 7.10401C186.798 6.85962 185.489 6.62499 184.178 6.40011L184.516 4.42891C185.837 4.65546 187.156 4.89183 188.474 5.13803L188.106 7.10401ZM84.9746 7.86623C83.6715 8.12972 82.3699 8.40293 81.0699 8.68586L80.6445 6.73162C81.9542 6.44658 83.2654 6.17134 84.5782 5.9059L84.9746 7.86623ZM195.93 8.68589C194.63 8.40296 193.328 8.12975 192.025 7.86626L192.421 5.90593C193.734 6.17137 195.045 6.44661 196.355 6.73164L195.93 8.68589ZM77.1749 9.56383C75.8803 9.86573 74.5874 10.1773 73.2964 10.4986L72.8134 8.55779C74.114 8.23413 75.4165 7.92023 76.7207 7.61609L77.1749 9.56383ZM203.703 10.4986C202.412 10.1774 201.119 9.86576 199.825 9.56386L200.279 7.61612C201.583 7.92026 202.886 8.23416 204.186 8.55783L203.703 10.4986ZM69.4297 11.4913C68.1444 11.8315 66.8611 12.1813 65.5798 12.5407L65.0396 10.6151C66.3304 10.2529 67.6232 9.90054 68.918 9.55788L69.4297 11.4913ZM211.42 12.5408C210.139 12.1813 208.855 11.8315 207.57 11.4914L208.082 9.55792C209.376 9.90058 210.669 10.253 211.96 10.6151L211.42 12.5408ZM61.745 13.6473C60.4701 14.0254 59.1973 14.4132 57.9268 14.8106L57.3297 12.9018C58.6097 12.5014 59.8919 12.1108 61.1763 11.7298L61.745 13.6473ZM219.073 14.8106C217.802 14.4132 216.53 14.0254 215.255 13.6473L215.823 11.7299C217.108 12.1108 218.39 12.5014 219.67 12.9018L219.073 14.8106ZM54.1274 16.0299C52.8638 16.4457 51.6026 16.8712 50.3439 17.3062L49.6905 15.416C50.9586 14.9777 52.2292 14.5491 53.5022 14.1301L54.1274 16.0299ZM226.656 17.3063C225.397 16.8712 224.136 16.4458 222.872 16.0299L223.497 14.1302C224.77 14.5491 226.041 14.9777 227.309 15.416L226.656 17.3063ZM46.5836 18.6371C45.3327 19.0903 44.0844 19.553 42.8387 20.0253L42.1297 18.1552C43.3846 17.6794 44.6422 17.2133 45.9024 16.7567L46.5836 18.6371ZM234.161 20.0253C232.915 19.5531 231.667 19.0903 230.416 18.6372L231.097 16.7568C232.357 17.2133 233.615 17.6795 234.87 18.1552L234.161 20.0253ZM39.12 21.4668C37.8836 21.9566 36.6498 22.456 35.419 22.9648L34.6549 21.1165C35.8949 20.6039 37.1377 20.1009 38.3834 19.6074L39.12 21.4668ZM241.581 22.9648C240.35 22.456 239.116 21.9567 237.88 21.4668L238.616 19.6074C239.862 20.1009 241.105 20.6039 242.345 21.1166L241.581 22.9648ZM31.7431 24.5164C30.5222 25.0424 29.3043 25.5779 28.0894 26.1227L27.271 24.2979C28.4948 23.749 29.7218 23.2095 30.9517 22.6796L31.7431 24.5164ZM248.91 26.1228C247.695 25.5779 246.477 25.0425 245.257 24.5165L246.048 22.6797C247.278 23.2096 248.505 23.749 249.729 24.2979L248.91 26.1228ZM24.4591 27.7833C23.255 28.3449 22.054 28.9159 20.8562 29.4963L19.9842 27.6964C21.1908 27.1118 22.4007 26.5366 23.6137 25.9708L24.4591 27.7833ZM256.143 29.4963C254.946 28.916 253.745 28.345 252.54 27.7834L253.386 25.9708C254.599 26.5366 255.809 27.1118 257.015 27.6964L256.143 29.4963ZM17.2742 31.2647C16.0879 31.8613 14.905 32.4672 13.7255 33.0823L12.8006 31.309C13.9889 30.6893 15.1805 30.0789 16.3756 29.4779L17.2742 31.2647ZM263.274 33.0824C262.095 32.4672 260.912 31.8613 259.725 31.2647L260.624 29.478C261.819 30.079 263.011 30.6893 264.199 31.309L263.274 33.0824ZM10.1975 34.9557C9.02916 35.5871 7.86437 36.2278 6.70319 36.8777L5.72641 35.1325C6.89616 34.4778 8.06956 33.8324 9.2465 33.1962L10.1975 34.9557ZM270.296 36.8777C269.135 36.2278 267.97 35.5872 266.802 34.9557L267.753 33.1963C268.93 33.8324 270.103 34.4778 271.273 35.1325L270.296 36.8777ZM3.23374 38.8532C2.65734 39.1871 2.08186 39.5232 1.50732 39.8617L0.492188 38.1385C1.07096 37.7975 1.65068 37.4589 2.23134 37.1226L3.23374 38.8532ZM275.492 39.8617C274.918 39.5232 274.342 39.1871 273.766 38.8532L274.768 37.1226C275.349 37.4589 275.929 37.7975 276.507 38.1385L275.492 39.8617Z" fill="#39B7D2"/>
</svg>
