<svg width="57" height="60" viewBox="0 0 57 60" fill="none" xmlns="http://www.w3.org/2000/svg">
<path d="M53.9997 35.3471L51.5388 33.3715C51.3325 33.2008 51.1658 32.9876 51.0502 32.7466C50.9347 32.5056 50.8731 32.2426 50.8696 31.9756V28.3464C50.8686 28.0787 50.9282 27.8142 51.0441 27.5726C51.1599 27.3309 51.329 27.1183 51.5388 26.9506L53.935 25.0394C55.0719 24.1104 55.838 22.8082 56.0952 21.3672C56.3525 19.9262 56.084 18.4412 55.3382 17.1797L52.9204 13.1424C52.2327 11.9912 51.1734 11.1056 49.9151 10.6299C48.6568 10.1541 47.2736 10.1163 45.9909 10.5225L42.062 11.7681C41.8322 11.8435 41.5881 11.8653 41.3485 11.8318C41.1089 11.7983 40.8803 11.7104 40.6804 11.5748L38.0252 9.83535C37.8113 9.69763 37.6307 9.51453 37.4964 9.29919C37.362 9.08385 37.2772 8.84161 37.248 8.58983L36.7299 5.1539C36.5368 3.7287 35.8313 2.42134 34.7438 1.4738C33.6564 0.526257 32.2607 0.00268835 30.815 0H25.9579C24.4674 0.00314344 23.031 0.555975 21.9265 1.55159C20.822 2.5472 20.1278 3.91487 19.9782 5.39012L19.6328 8.58983C19.608 8.87021 19.5143 9.14022 19.36 9.37612C19.2056 9.61203 18.9954 9.8066 18.7478 9.94273L15.3154 11.7681C15.089 11.8735 14.8422 11.9281 14.5922 11.9281C14.3423 11.9281 14.0954 11.8735 13.869 11.7681L11.1706 10.7373C9.84966 10.1612 8.36303 10.0832 6.98848 10.5179C5.61393 10.9527 4.44549 11.8703 3.70145 13.0995L1.2405 17.1797C0.478052 18.4154 0.183128 19.881 0.408624 21.3135C0.63412 22.746 1.36528 24.0517 2.47097 24.9964L5.38525 27.3801C5.57467 27.5484 5.72782 27.7531 5.83542 27.982C5.94302 28.2108 6.00285 28.459 6.01128 28.7115V31.4388C6.01448 31.7006 5.96232 31.9601 5.85819 32.2006C5.75406 32.4411 5.60029 32.6571 5.40684 32.8346L2.36304 35.6693C1.3243 36.6022 0.636318 37.8595 0.412617 39.2337C0.188917 40.6079 0.442868 42.017 1.13256 43.2283L3.29129 47.1796C3.99853 48.4275 5.13469 49.3795 6.49099 49.8608C7.8473 50.3421 9.33265 50.3204 10.6741 49.7995L14.1713 48.4466C14.4005 48.3516 14.649 48.3118 14.8966 48.3305C15.1442 48.3491 15.3838 48.4257 15.596 48.554L18.6182 50.3579C18.8364 50.4795 19.0238 50.6492 19.1659 50.8539C19.3081 51.0586 19.4014 51.2929 19.4386 51.539L20.1293 55.1038C20.3961 56.4853 21.1396 57.7307 22.2315 58.6247C23.3233 59.5187 24.6949 60.0052 26.109 60H30.7503C32.1939 59.9942 33.5874 59.4728 34.677 58.5308C35.7666 57.5888 36.4798 56.2888 36.6868 54.8675L37.248 51.3242C37.2882 51.0596 37.3864 50.807 37.5356 50.5844C37.6848 50.3617 37.8814 50.1744 38.1115 50.0358L40.9179 48.4466C41.138 48.3463 41.3773 48.2943 41.6194 48.2943C41.8616 48.2943 42.1009 48.3463 42.321 48.4466L45.8613 49.7995C47.1841 50.2992 48.6424 50.3144 49.9753 49.8422C51.3082 49.3701 52.4287 48.4415 53.1362 47.2226L55.4677 43.2927C56.2302 42.0157 56.5017 40.507 56.2318 39.0461C55.9619 37.5852 55.1689 36.271 53.9997 35.3471ZM51.6899 41.0164L49.3585 44.9463C49.1597 45.2851 48.8477 45.5438 48.4769 45.6772C48.1061 45.8106 47.6999 45.8104 47.3293 45.6764L43.789 44.3235C42.9653 44.0161 42.0835 43.8933 41.2066 43.9638C40.3298 44.0343 39.4793 44.2965 38.716 44.7315L35.9096 46.3207C35.1176 46.7668 34.4367 47.3844 33.9172 48.1279C33.3978 48.8714 33.0532 49.7216 32.909 50.6156L32.3477 54.1803C32.3003 54.5866 32.1051 54.9616 31.7989 55.2346C31.4927 55.5075 31.0967 55.6596 30.6855 55.6621H26.109C25.7088 55.6574 25.323 55.5129 25.0191 55.2538C24.7152 54.9947 24.5126 54.6375 24.4468 54.2448L23.756 50.68C23.5941 49.8397 23.2543 49.0432 22.7593 48.3434C22.2643 47.6437 21.6254 47.0567 20.8849 46.6213L17.8627 44.8174C16.9436 44.268 15.8912 43.9784 14.8189 43.9799C14.0808 43.9887 13.35 44.1268 12.6602 44.3879L9.16302 45.7623C8.77487 45.9357 8.33465 45.9544 7.93306 45.8146C7.53146 45.6747 7.19905 45.387 7.0043 45.0107L4.84557 41.0594C4.66047 40.7128 4.59404 40.3156 4.65637 39.9281C4.7187 39.5405 4.90639 39.1838 5.19097 38.9119L8.38588 36.0773C9.03749 35.4885 9.5555 34.7684 9.90539 33.9649C10.2553 33.1613 10.429 32.2929 10.4151 31.4173V28.69C10.3906 27.8272 10.186 26.9788 9.8144 26.1988C9.44278 25.4188 8.91221 24.7241 8.25636 24.1589L5.2989 21.6464C4.97327 21.3645 4.75797 20.9774 4.69084 20.5532C4.62372 20.129 4.70909 19.6949 4.93192 19.3271L7.39287 15.3328C7.59472 14.964 7.93171 14.6868 8.33377 14.5588C8.73582 14.4308 9.172 14.4619 9.55159 14.6457L12.25 15.7838C13.0816 16.1454 13.9861 16.3103 14.8925 16.2656C15.7989 16.2209 16.6826 15.9678 17.4741 15.5261L20.9497 13.6149C21.7872 13.1326 22.4966 12.4579 23.0186 11.6472C23.5406 10.8366 23.8601 9.91343 23.9503 8.9549L24.2957 5.81961C24.3378 5.40738 24.5301 5.02473 24.8363 4.74385C25.1425 4.46297 25.5415 4.30328 25.9579 4.29491H30.7934C31.2103 4.29746 31.6118 4.45181 31.922 4.72877C32.2323 5.00574 32.4298 5.38615 32.4773 5.79813L32.9738 9.25554C33.0868 10.1198 33.3841 10.95 33.8458 11.6907C34.3074 12.4314 34.9227 13.0654 35.6506 13.5505L38.3058 15.2684C39.0529 15.7388 39.8972 16.0352 40.7756 16.1356C41.654 16.236 42.5439 16.1378 43.3788 15.8482L47.3077 14.6242C47.6636 14.5098 48.0482 14.5198 48.3976 14.6526C48.747 14.7854 49.0404 15.033 49.229 15.3543L51.6467 19.3271C51.8661 19.7029 51.9453 20.1437 51.8703 20.5718C51.7953 20.9999 51.5709 21.3881 51.2366 21.6678L48.8404 23.622C48.1241 24.1952 47.5465 24.9212 47.1504 25.7464C46.7543 26.5717 46.5499 27.4749 46.5521 28.3894V32.0186C46.5491 32.9248 46.7513 33.8201 47.1437 34.638C47.5361 35.4559 48.1086 36.1754 48.8188 36.743L51.2797 38.7187C51.6035 38.9962 51.8212 39.3763 51.8959 39.7949C51.9706 40.2135 51.8979 40.645 51.6899 41.0164Z" fill="#F3F8FA"/>
<path d="M36.3335 37C36.3335 36.4477 35.8858 36 35.3335 36H21.3335C20.7812 36 20.3335 36.4477 20.3335 37V39C20.3335 39.5523 20.7812 40 21.3335 40H35.3335C35.8858 40 36.3335 39.5523 36.3335 39V37ZM16.3335 26V27C16.3335 27.5523 16.7812 28 17.3335 28H23.3335C23.8858 28 24.3335 27.5523 24.3335 27V26C24.3335 24.9391 23.9121 23.9217 23.1619 23.1716C22.4118 22.4214 21.3944 22 20.3335 22C19.2726 22 18.2552 22.4214 17.5051 23.1716C16.7549 23.9217 16.3335 24.9391 16.3335 26ZM32.3335 26V27C32.3335 27.5523 32.7812 28 33.3335 28H39.3335C39.8858 28 40.3335 27.5523 40.3335 27V26C40.3335 24.9391 39.9121 23.9217 39.1619 23.1716C38.4118 22.4214 37.3944 22 36.3335 22C35.2726 22 34.2552 22.4214 33.5051 23.1716C32.7549 23.9217 32.3335 24.9391 32.3335 26Z" fill="#F3F8FA"/>
</svg>
