<svg width="60" height="60" viewBox="0 0 60 60" fill="none" xmlns="http://www.w3.org/2000/svg">
<path d="M57.8571 18.25H2.14286C1.68718 18.25 1.26142 18.091 0.956881 17.8245C0.65447 17.5599 0.5 17.2165 0.5 16.875V1.875C0.5 1.53351 0.65447 1.19007 0.956881 0.925462C1.26142 0.658987 1.68718 0.5 2.14286 0.5H12.8571C13.3128 0.5 13.7386 0.658988 14.0431 0.925461C14.3455 1.19007 14.5 1.53351 14.5 1.875V4.625C14.5 5.45343 15.1716 6.125 16 6.125H20.4286C21.257 6.125 21.9286 5.45343 21.9286 4.625V1.875C21.9286 1.53351 22.083 1.19007 22.3855 0.925462C22.69 0.658988 23.1158 0.5 23.5714 0.5H36.4286C36.8842 0.5 37.31 0.658988 37.6145 0.925461C37.917 1.19007 38.0714 1.53351 38.0714 1.875V4.625C38.0714 5.45343 38.743 6.125 39.5714 6.125H44C44.8284 6.125 45.5 5.45343 45.5 4.625V1.875C45.5 1.53351 45.6545 1.19007 45.9569 0.925461C46.2614 0.658988 46.6872 0.5 47.1429 0.5H57.8571C58.3128 0.5 58.7386 0.658988 59.0431 0.925461C59.3455 1.19007 59.5 1.53351 59.5 1.875V16.875C59.5 17.2165 59.3455 17.5599 59.0431 17.8245C58.7386 18.091 58.3128 18.25 57.8571 18.25ZM35.2426 8.44954L34.9133 8.82583L35.2426 8.44954C34.9402 8.18493 34.7857 7.84149 34.7857 7.5V4.75C34.7857 3.92157 34.1141 3.25 33.2857 3.25H26.7143C25.8859 3.25 25.2143 3.92157 25.2143 4.75V7.5C25.2143 7.84149 25.0598 8.18493 24.7574 8.44954C24.4529 8.71601 24.0271 8.875 23.5714 8.875H12.8571C12.4015 8.875 11.9757 8.71601 11.6712 8.44954C11.3688 8.18493 11.2143 7.84149 11.2143 7.5V4.75C11.2143 3.92157 10.5427 3.25 9.71428 3.25H5.28571C4.45729 3.25 3.78571 3.92157 3.78571 4.75V14C3.78571 14.8284 4.45729 15.5 5.28571 15.5H54.7143C55.5427 15.5 56.2143 14.8284 56.2143 14V4.75C56.2143 3.92157 55.5427 3.25 54.7143 3.25H50.2857C49.4573 3.25 48.7857 3.92157 48.7857 4.75V7.5C48.7857 7.84149 48.6312 8.18493 48.3288 8.44954C48.0243 8.71601 47.5985 8.875 47.1429 8.875H36.4286C35.9729 8.875 35.5471 8.71601 35.2426 8.44954Z" fill="#F3F8FA" stroke="#F3F8FA"/>
<path d="M53.5709 59.5H6.42801C5.97234 59.5 5.54658 59.341 5.24204 59.0745C4.93963 58.8099 4.78516 58.4665 4.78516 58.125V16.875C4.78516 16.5335 4.93963 16.1901 5.24204 15.9255C5.54658 15.659 5.97234 15.5 6.42801 15.5H53.5709C54.0265 15.5 54.4523 15.659 54.7568 15.9255L55.0857 15.5496L54.7568 15.9255C55.0593 16.1901 55.2137 16.5335 55.2137 16.875V58.125C55.2137 58.4665 55.0593 58.8099 54.7568 59.0745C54.4523 59.341 54.0265 59.5 53.5709 59.5ZM8.07087 55.25C8.07087 56.0784 8.74244 56.75 9.57087 56.75H50.428C51.2564 56.75 51.928 56.0784 51.928 55.25V19.75C51.928 18.9216 51.2564 18.25 50.428 18.25H9.57087C8.74244 18.25 8.07087 18.9216 8.07087 19.75V55.25Z" fill="#F3F8FA" stroke="#F3F8FA"/>
<path d="M19.2874 59.5C18.8317 59.5 18.406 59.341 18.1014 59.0745C17.799 58.8099 17.6445 58.4665 17.6445 58.125V37.5C17.6445 34.6721 18.9278 31.9441 21.2396 29.9213C23.5534 27.8967 26.7044 26.75 30.0017 26.75C33.299 26.75 36.4499 27.8967 38.7638 29.9213C41.0755 31.9441 42.3588 34.6721 42.3588 37.5V58.125C42.3588 58.4665 42.2043 58.8099 41.9019 59.0745C41.5974 59.341 41.1716 59.5 40.716 59.5H19.2874ZM20.9302 55.25C20.9302 56.0784 21.6018 56.75 22.4302 56.75H37.5731C38.4015 56.75 39.0731 56.0784 39.0731 55.25V37.5C39.0731 35.3551 38.0987 33.314 36.3918 31.8204C34.6871 30.3287 32.3876 29.5 30.0017 29.5C27.6157 29.5 25.3163 30.3287 23.6115 31.8204C21.9046 33.314 20.9302 35.3551 20.9302 37.5V55.25Z" fill="#F3F8FA" stroke="#F3F8FA"/>
</svg>
