<svg width="61" height="60" viewBox="0 0 61 60" fill="none" xmlns="http://www.w3.org/2000/svg">
<path d="M56.9192 10H49.2099C48.7159 10.0001 48.233 10.1466 47.8222 10.4209C47.4115 10.6952 47.0914 11.085 46.9024 11.5411C46.7133 11.9972 46.6639 12.4991 46.7602 12.9832C46.8566 13.4674 47.0944 13.9122 47.4437 14.2613L50.1567 16.9724L41.1982 25.9219C40.7222 26.3765 40.0892 26.6301 39.4308 26.6301C38.7724 26.6301 38.1393 26.3765 37.6633 25.9219L37.2386 25.495C35.8112 24.1321 33.913 23.3716 31.9387 23.3716C29.9645 23.3716 28.0663 24.1321 26.6389 25.495L13.8982 38.2265C13.4288 38.6969 13.1656 39.3344 13.1665 39.9987C13.1674 40.663 13.4324 41.2998 13.9032 41.7688C14.3739 42.2379 15.0119 42.5009 15.6767 42.5C16.3415 42.4991 16.9787 42.2343 17.4481 41.7639L30.1888 29.0324C30.6645 28.5772 31.2976 28.3231 31.9562 28.3231C32.6148 28.3231 33.248 28.5772 33.7237 29.0324L34.1484 29.4592C35.5764 30.8209 37.4744 31.5807 39.4483 31.5807C41.4221 31.5807 43.3201 30.8209 44.7481 29.4592L53.7066 20.5072L56.4196 23.2183C56.7702 23.5617 57.2142 23.7942 57.6962 23.8869C58.1782 23.9797 58.6769 23.9284 59.13 23.7396C59.583 23.5508 59.9704 23.2328 60.2436 22.8253C60.5169 22.4178 60.664 21.9389 60.6665 21.4484V13.7446C60.6665 12.7514 60.2717 11.799 59.569 11.0968C58.8662 10.3945 57.9131 10 56.9192 10Z" fill="#F3F8FA"/>
<path d="M58.1665 54.995H13.1665C11.1774 54.995 9.26973 54.204 7.8632 52.7961C6.45668 51.3882 5.6665 49.4786 5.6665 47.4875V2.5025C5.6665 1.8388 5.40311 1.20228 4.93427 0.732966C4.46543 0.263656 3.82955 0 3.1665 0C2.50346 0 1.86758 0.263656 1.39874 0.732966C0.929896 1.20228 0.666504 1.8388 0.666504 2.5025L0.666504 47.4875C0.670474 50.8048 1.98871 53.9851 4.33205 56.3308C6.6754 58.6765 9.85252 59.996 13.1665 60H58.1665C58.8295 60 59.4654 59.7363 59.9343 59.267C60.4031 58.7977 60.6665 58.1612 60.6665 57.4975C60.6665 56.8338 60.4031 56.1973 59.9343 55.728C59.4654 55.2586 58.8295 54.995 58.1665 54.995Z" fill="#F3F8FA"/>
</svg>
