<svg width="117" height="130" viewBox="0 0 117 130" fill="none" xmlns="http://www.w3.org/2000/svg">
<path d="M64.9251 54.6056L79.9829 13.5679C82.3315 7.16739 73.8823 2.43132 69.6478 7.77445L21.9735 67.9307C18.8567 71.8636 21.6576 77.6574 26.6759 77.6574H50.594L36.4997 115.917C34.1768 122.223 42.3905 126.996 46.7192 121.856L95.0472 64.4705L91.2228 61.2497L95.0472 64.4705C98.3334 60.5684 95.5595 54.6056 90.4579 54.6056H64.9251ZM29.8108 74.1418L27.9377 72.6574L29.8108 74.1418L29.8141 74.1376C29.813 74.139 29.8119 74.1404 29.8108 74.1418Z" stroke="url(#paint0_linear_547_1639)" stroke-width="10"/>
<defs>
<linearGradient id="paint0_linear_547_1639" x1="24.6074" y1="79.6494" x2="92.1223" y2="79.6494" gradientUnits="userSpaceOnUse">
<stop stop-color="#31D3BC"/>
<stop offset="0.495" stop-color="#28D6DD"/>
<stop offset="1" stop-color="#3CB2D0"/>
</linearGradient>
</defs>
</svg>
