<svg width="117" height="117" viewBox="0 0 117 117" fill="none" xmlns="http://www.w3.org/2000/svg">
<path d="M82.8563 0C81.5637 0 80.324 0.513615 79.4099 1.42785C78.4959 2.34209 77.9824 3.58207 77.9824 4.875C77.9824 19.2514 65.3931 24.375 53.6129 24.375H19.4956C14.325 24.375 9.36626 26.4295 5.71013 30.0864C2.05399 33.7434 0 38.7033 0 43.875L0 53.625C0.0106454 56.5438 0.679722 59.4227 1.95737 62.0469C3.23502 64.6711 5.08829 66.9732 7.37908 68.7814L24.7887 107.645C26.0268 110.429 28.0453 112.794 30.5997 114.455C33.1541 116.115 36.1349 116.999 39.1813 117C41.6051 116.998 43.9901 116.391 46.1191 115.232C48.2481 114.073 50.0536 112.4 51.3711 110.365C52.6887 108.33 53.4765 105.998 53.6629 103.581C53.8493 101.163 53.4283 98.7379 52.4383 96.525L43.0139 75.9582C42.4069 74.6334 43.3749 73.125 44.8321 73.125H53.6129C65.3931 73.125 77.9824 78.2486 77.9824 92.625C77.9824 93.9179 78.4959 95.1579 79.4099 96.0722C80.324 96.9864 81.5637 97.5 82.8563 97.5C84.1489 97.5 85.3886 96.9864 86.3027 96.0722C87.2167 95.1579 87.7302 93.9179 87.7302 92.625V4.875C87.7302 3.58207 87.2167 2.34209 86.3027 1.42785C85.3886 0.513615 84.1489 0 82.8563 0ZM43.558 100.518C43.8809 101.247 44.0166 102.045 43.953 102.84C43.8894 103.635 43.6285 104.402 43.1938 105.07C42.7592 105.739 42.1645 106.288 41.4639 106.669C40.7632 107.05 39.9786 107.249 39.1813 107.25C38.0183 107.249 36.8807 106.911 35.9064 106.275C34.9322 105.64 34.1634 104.736 33.6933 103.672L20.0074 73.125H30.9931L43.558 100.518ZM77.9824 71.175C71.019 65.8085 62.3974 63.049 53.6129 63.375H19.4956C16.9103 63.375 14.4309 62.3478 12.6029 60.5193C10.7748 58.6908 9.7478 56.2109 9.7478 53.625V43.875C9.7478 41.2891 10.7748 38.8092 12.6029 36.9807C14.4309 35.1522 16.9103 34.125 19.4956 34.125H53.6129C62.3945 34.4579 71.0157 31.7071 77.9824 26.3494V71.175ZM116.486 75.3285C116.2 75.9017 115.804 76.4128 115.321 76.8328C114.837 77.2528 114.276 77.5734 113.668 77.7762C113.061 77.9791 112.419 78.0602 111.781 78.0149C111.142 77.9697 110.518 77.7989 109.945 77.5125L100.198 72.6375C99.0407 72.0596 98.1607 71.0456 97.7512 69.8187C97.3418 68.5918 97.4363 67.2524 98.0141 66.0952C98.5919 64.9381 99.6057 64.0579 100.832 63.6483C102.059 63.2387 103.398 63.3333 104.555 63.9112L114.303 68.7862C115.454 69.3638 116.329 70.3735 116.738 71.5947C117.148 72.816 117.057 74.1495 116.486 75.3041V75.3285ZM98.0141 31.4535C97.7278 30.8806 97.5571 30.2568 97.5118 29.6179C97.4666 28.979 97.5477 28.3374 97.7504 27.7298C97.9532 27.1222 98.2737 26.5606 98.6936 26.0769C99.1135 25.5933 99.6246 25.1972 100.198 24.9113L109.945 20.0363C111.102 19.4583 112.441 19.3637 113.668 19.7733C114.895 20.1829 115.908 21.0631 116.486 22.2203C117.064 23.3774 117.159 24.7168 116.749 25.9437C116.34 27.1706 115.46 28.1846 114.303 28.7625L104.555 33.6375C103.982 33.9239 103.358 34.0947 102.72 34.1399C102.081 34.1852 101.439 34.1041 100.832 33.9012C100.225 33.6984 99.6631 33.3778 99.1796 32.9578C98.696 32.5378 98.3 32.0267 98.0141 31.4535ZM97.478 48.75C97.478 47.4571 97.9915 46.2171 98.9055 45.3029C99.8195 44.3886 101.059 43.875 102.352 43.875H112.1C113.392 43.875 114.632 44.3886 115.546 45.3029C116.46 46.2171 116.974 47.4571 116.974 48.75C116.974 50.0429 116.46 51.2829 115.546 52.1971C114.632 53.1114 113.392 53.625 112.1 53.625H102.352C101.059 53.625 99.8195 53.1114 98.9055 52.1971C97.9915 51.2829 97.478 50.0429 97.478 48.75Z" fill="url(#paint0_linear_547_1629)"/>
<defs>
<linearGradient id="paint0_linear_547_1629" x1="0" y1="58.5" x2="117" y2="58.5" gradientUnits="userSpaceOnUse">
<stop stop-color="#31D3BC"/>
<stop offset="0.495" stop-color="#28D6DD"/>
<stop offset="1" stop-color="#3CB2D0"/>
</linearGradient>
</defs>
</svg>
