<svg width="122" height="121" viewBox="0 0 122 121" fill="none" xmlns="http://www.w3.org/2000/svg">
<path d="M61 22.5C64.2447 22.5 66.875 19.8697 66.875 16.625V6.875C66.875 3.63033 64.2447 1 61 1C57.7553 1 55.125 3.63033 55.125 6.875V16.625C55.125 19.8697 57.7553 22.5 61 22.5ZM66.875 104.375C66.875 101.13 64.2447 98.5 61 98.5C57.7553 98.5 55.125 101.13 55.125 104.375V114.125C55.125 117.37 57.7553 120 61 120C64.2447 120 66.875 117.37 66.875 114.125V104.375ZM23 60.5C23 57.2553 20.3697 54.625 17.125 54.625H7.375C4.13033 54.625 1.5 57.2553 1.5 60.5C1.5 63.7447 4.13033 66.375 7.375 66.375H17.125C20.3697 66.375 23 63.7447 23 60.5ZM120.5 60.5C120.5 57.2553 117.87 54.625 114.625 54.625H104.875C101.63 54.625 99 57.2553 99 60.5C99 63.7447 101.63 66.375 104.875 66.375H114.625C117.87 66.375 120.5 63.7447 120.5 60.5ZM112.427 90.3985C114.059 87.5928 113.107 83.9948 110.301 82.3635L101.874 77.4653C99.0693 75.835 95.474 76.7863 93.8425 79.5903C92.2099 82.3961 93.1619 85.9941 95.9684 87.6254L104.395 92.5236C107.2 94.1539 110.795 93.2026 112.427 90.3985ZM93.0072 17.0847C94.6379 14.2783 93.681 10.6812 90.8713 9.05614C88.0697 7.43578 84.4851 8.38941 82.859 11.1877L77.9525 19.6314C76.3217 22.4378 77.2787 26.035 80.0884 27.66C82.89 29.2803 86.4745 28.3267 88.1006 25.5284L93.0072 17.0847ZM110.336 38.597C113.145 36.963 114.097 33.3612 112.462 30.5527C110.827 27.7435 107.224 26.7924 104.416 28.4286L96.0117 33.3253C93.2053 34.9604 92.2562 38.5612 93.8921 41.3672C95.5266 44.1708 99.1234 45.1201 101.929 43.4882L110.336 38.597ZM90.999 111.911C93.8114 110.275 94.7625 106.668 93.1218 103.858L88.2101 95.4462C86.5735 92.6432 82.9749 91.697 80.1712 93.3325C77.3679 94.9677 76.42 98.5651 78.0534 101.369L82.956 109.786C84.5909 112.593 88.1911 113.544 90.999 111.911ZM26.1015 87.6152C28.8998 85.9892 29.8535 82.4046 28.2331 79.603C26.6081 76.7933 23.0109 75.8363 20.2045 77.4671L11.7608 82.3737C8.96253 83.9997 8.0089 87.5843 9.62926 90.3859C11.2543 93.1956 14.8515 94.1526 17.6578 92.5218L26.1015 87.6152ZM41.9847 27.6464C44.7868 26.026 45.7432 22.44 44.1204 19.6393L39.2154 11.1741C37.5926 8.37333 34.007 7.41753 31.2053 9.03889C28.399 10.6629 27.4435 14.2563 29.0725 17.0597L33.988 25.5188C35.6109 28.3116 39.1885 29.2635 41.9847 27.6464ZM28.1946 41.3733C29.8363 38.5656 28.8871 34.9584 26.076 33.3224L17.6518 28.4199C14.8482 26.7883 11.2528 27.7364 9.61839 30.5383C7.98224 33.3431 8.93048 36.9433 11.736 38.5782L20.1573 43.4858C22.9604 45.1193 26.5569 44.174 28.1946 41.3733ZM44.0099 101.37C45.6433 98.5653 44.6949 94.9679 41.8912 93.3333C39.0856 91.6976 35.4851 92.6473 33.8511 95.4539L28.9498 103.873C27.3178 106.676 28.2656 110.272 31.0674 111.906C33.8723 113.542 37.4724 112.593 39.1067 109.788L44.0099 101.37Z" fill="url(#paint0_linear_547_1634)" stroke="url(#paint1_linear_547_1634)" stroke-width="2"/>
<defs>
<linearGradient id="paint0_linear_547_1634" x1="2.5" y1="60.5" x2="119.5" y2="60.5" gradientUnits="userSpaceOnUse">
<stop stop-color="#31D3BC"/>
<stop offset="0.495" stop-color="#28D6DD"/>
<stop offset="1" stop-color="#3CB2D0"/>
</linearGradient>
<linearGradient id="paint1_linear_547_1634" x1="2.5" y1="60.5" x2="119.5" y2="60.5" gradientUnits="userSpaceOnUse">
<stop stop-color="#31D3BC"/>
<stop offset="0.495" stop-color="#28D6DD"/>
<stop offset="1" stop-color="#3CB2D0"/>
</linearGradient>
</defs>
</svg>
