<svg width="32" height="33" viewBox="0 0 32 33" fill="none" xmlns="http://www.w3.org/2000/svg">
<path fill-rule="evenodd" clip-rule="evenodd" d="M16 29.5C23.1797 29.5 29 23.6797 29 16.5C29 9.3203 23.1797 3.5 16 3.5C8.8203 3.5 3 9.3203 3 16.5C3 23.6797 8.8203 29.5 16 29.5ZM16 32.5C24.8366 32.5 32 25.3366 32 16.5C32 7.66344 24.8366 0.5 16 0.5C7.16344 0.5 0 7.66344 0 16.5C0 25.3366 7.16344 32.5 16 32.5ZM13.245 23C12.9734 23.0007 12.7044 22.9492 12.4535 22.8482C12.2026 22.7473 11.9749 22.599 11.7834 22.412L7.75425 18.5006C7.34233 18.1007 7.34233 17.4395 7.75425 17.0396C8.14924 16.6562 8.77748 16.6562 9.17247 17.0396L11.6512 19.4459C12.539 20.3077 13.9511 20.3078 14.8389 19.446L22.8311 11.6883C23.2261 11.3049 23.8543 11.3049 24.2493 11.6883C24.6612 12.0882 24.6612 12.7494 24.2493 13.1493L14.7076 22.412C14.516 22.599 14.2881 22.7473 14.037 22.8483C13.786 22.9492 13.5168 23.0008 13.245 23Z" fill="url(#paint0_linear_547_2017)"/>
<defs>
<linearGradient id="paint0_linear_547_2017" x1="7" y1="17" x2="25" y2="17" gradientUnits="userSpaceOnUse">
<stop stop-color="#30CEB5"/>
<stop offset="0.495" stop-color="#24D4E0"/>
<stop offset="1" stop-color="#2BCCE8"/>
</linearGradient>
</defs>
</svg>
