<svg width="142" height="32" viewBox="0 0 142 32" fill="none" xmlns="http://www.w3.org/2000/svg">
<g clip-path="url(#clip0_4003_1384)">
<path d="M43.037 32H39.5151V0H43.037V32ZM62.6194 14.421L78.1267 0H72.9822L60.628 11.5003V0H57.1061V32H60.628V17.3965L74.4758 32H79.3068L62.6194 14.421ZM0 32H3.52188V10.6606L0 6.69937V32ZM21.8135 0V21.3394L25.3354 25.3006V0H21.8135ZM21.8135 23.6942L3.52188 3.03023L0.829762 0H0V4.34455L3.52188 8.30576L21.8135 28.9698L24.5056 32H25.3354V27.6554L21.8135 23.6942ZM126.253 0.127781L110.524 32H114.433L126.253 8.0502L138.072 32H141.982L126.253 0.127781ZM85.7052 0V3.48659H92.9887V32.0183H96.5106V3.48659H103.794V0H85.7052Z" fill="url(#paint0_linear_4003_1384)"/>
</g>
<defs>
<linearGradient id="paint0_linear_4003_1384" x1="0" y1="16.0091" x2="141.982" y2="16.0091" gradientUnits="userSpaceOnUse">
<stop stop-color="#30CEB5"/>
<stop offset="1" stop-color="#2BCCE8"/>
</linearGradient>
<clipPath id="clip0_4003_1384">
<rect width="142" height="32" fill="white"/>
</clipPath>
</defs>
</svg>
