<svg width="60" height="60" viewBox="0 0 60 60" fill="none" xmlns="http://www.w3.org/2000/svg">
<path d="M44.9994 17.5006C44.9994 17.995 44.8528 18.4784 44.5781 18.8895C44.3034 19.3006 43.9129 19.621 43.4561 19.8102C42.9993 19.9995 42.4967 20.049 42.0117 19.9525C41.5268 19.856 41.0813 19.6179 40.7317 19.2683C40.3821 18.9187 40.144 18.4732 40.0475 17.9883C39.951 17.5033 40.0005 17.0007 40.1898 16.5439C40.379 16.0871 40.6994 15.6966 41.1105 15.4219C41.5216 15.1472 42.005 15.0006 42.4994 15.0006C43.1625 15.0006 43.7983 15.264 44.2672 15.7328C44.736 16.2017 44.9994 16.8375 44.9994 17.5006ZM34.9995 22.5005C34.5051 22.5005 34.0217 22.6471 33.6106 22.9218C33.1995 23.1965 32.8791 23.587 32.6899 24.0438C32.5006 24.5006 32.4511 25.0032 32.5476 25.4882C32.6441 25.9731 32.8822 26.4186 33.2318 26.7682C33.5814 27.1178 34.0269 27.3559 34.5118 27.4524C34.9968 27.5489 35.4994 27.4994 35.9562 27.3101C36.413 27.1209 36.8035 26.8005 37.0782 26.3894C37.3529 25.9783 37.4995 25.4949 37.4995 25.0005C37.4995 24.3374 37.2361 23.7016 36.7673 23.2327C36.2984 22.7639 35.6626 22.5005 34.9995 22.5005ZM27.4996 30.0004C27.0052 30.0004 26.5218 30.147 26.1107 30.4217C25.6996 30.6964 25.3792 31.0869 25.19 31.5437C25.0007 32.0005 24.9512 32.5031 25.0477 32.9881C25.1442 33.473 25.3823 33.9185 25.7319 34.2681C26.0815 34.6177 26.527 34.8558 27.0119 34.9523C27.4969 35.0488 27.9995 34.9993 28.4563 34.81C28.9131 34.6208 29.3036 34.3004 29.5783 33.8893C29.853 33.4782 29.9996 32.9948 29.9996 32.5004C29.9996 31.8373 29.7362 31.2015 29.2674 30.7326C28.7985 30.2638 28.1627 30.0004 27.4996 30.0004ZM58.3792 1.62079C59.1243 2.35901 59.6415 3.2958 59.8694 4.31963C60.0972 5.34347 60.026 6.4112 59.6642 7.39571L59.4767 7.9232C55.7218 18.3431 52.1193 28.2504 44.9994 37.0503V37.5003C44.9884 41.7675 43.9896 45.9743 42.0812 49.791C40.1729 53.6078 37.4067 56.9309 33.9995 59.5C33.5646 59.8246 33.0363 60 32.4936 60H27.4997C24.7383 60 22.4997 57.7614 22.4997 55V51.0351L17.4998 46.0352L13.5348 50.0001C12.5587 50.9763 10.976 50.9763 9.99986 50.0001C9.02372 49.024 9.02372 47.4413 9.99987 46.4652L13.9648 42.5002L8.96488 37.5003H5C2.23858 37.5003 0 35.2617 0 32.5003V26.9324C0 26.3925 0.175476 25.8671 0.499993 25.4355C3.0948 22.0961 6.4371 19.4123 10.2581 17.6C14.079 15.7876 18.272 14.8973 22.4997 15.0006H22.9497C31.7496 7.8832 41.6494 4.28075 52.0643 0.5283L52.6043 0.335803C53.5888 -0.0259581 54.6565 -0.0971711 55.6804 0.130642C56.7042 0.358456 57.641 0.875698 58.3792 1.62079ZM4.99993 32.5004H8.54739C10.9917 28.2838 13.8212 24.3027 16.9998 20.608C12.3028 21.5797 8.07324 24.113 4.99993 27.7954V32.5004ZM39.2495 43.1352C35.5932 46.2582 31.6603 49.0422 27.4996 51.4526V55.0001H31.6421C35.3762 51.9558 38.0413 47.7991 39.2495 43.1352ZM54.8418 5.15824C54.7752 5.08414 54.6871 5.03273 54.5898 5.01121C54.4925 4.98969 54.3909 4.99914 54.2993 5.03824L53.7618 5.23324C41.6519 9.59568 31.1946 13.3656 22.1897 22.368C18.7169 26.0864 15.676 30.1858 13.1248 34.5878L25.4122 46.8777C29.8134 44.3243 33.9126 41.2826 37.632 37.8103C46.6319 28.8104 50.4068 18.3431 54.7718 6.22822L54.9618 5.70073C55.0005 5.60903 55.0097 5.50755 54.9882 5.41036C54.9667 5.31316 54.9156 5.22506 54.8418 5.15824Z" fill="#3BB4D1"/>
</svg>
