<svg width="60" height="60" viewBox="0 0 60 60" fill="none" xmlns="http://www.w3.org/2000/svg">
<path fill-rule="evenodd" clip-rule="evenodd" d="M10 7H50C51.6569 7 53 8.34315 53 10V50C53 51.6569 51.6569 53 50 53H10C8.34315 53 7 51.6569 7 50V10C7 8.34315 8.34315 7 10 7ZM0 10C0 4.47715 4.47715 0 10 0H50C55.5228 0 60 4.47715 60 10V50C60 55.5228 55.5228 60 50 60H10C4.47715 60 0 55.5228 0 50V10ZM21.4178 44.4199C22.0246 44.6714 22.6753 44.7999 23.3322 44.7979C23.9894 44.7999 24.6405 44.6714 25.2478 44.42C25.855 44.1685 26.4063 43.799 26.8697 43.3329L49.9997 20.203C50.9758 19.2268 50.9758 17.6441 49.9997 16.6679C49.0235 15.6918 47.4409 15.6917 46.4647 16.6678L26.8677 36.2628C24.9151 38.2152 21.7494 38.2151 19.7968 36.2626L13.5347 30.0005C12.5585 29.0243 10.9759 29.0243 9.9997 30.0005C9.02354 30.9766 9.02354 32.5593 9.9997 33.5355L19.7972 43.3329C20.2601 43.7989 20.811 44.1684 21.4178 44.4199Z" fill="#3BB4D1"/>
</svg>
