<svg width="65" height="60" viewBox="0 0 65 60" fill="none" xmlns="http://www.w3.org/2000/svg">
<path d="M20.0564 41.7771C20.0564 43.9713 18.2777 45.75 16.0835 45.75C13.8893 45.75 12.1106 43.9713 12.1106 41.7771V41.1392C10.7297 40.655 9.45063 39.9226 8.33762 38.9788L7.70724 39.3398C5.82515 40.4177 3.42594 39.7749 2.33481 37.9005C1.23208 36.0062 1.8842 33.5761 3.7872 32.4884L4.36337 32.1591C4.09865 30.7316 4.09865 29.2684 4.36337 27.8409L3.7872 27.5116C1.8842 26.4239 1.23208 23.9938 2.33481 22.0995C3.42594 20.2251 5.82515 19.5823 7.70724 20.6602L8.33762 21.0212C9.45063 20.0774 10.7297 19.345 12.1106 18.8608V18.2229C12.1106 16.0287 13.8893 14.25 16.0835 14.25C18.2777 14.25 20.0564 16.0287 20.0564 18.2229V18.8608C21.4373 19.345 22.7164 20.0774 23.8294 21.0212L24.4598 20.6602C26.3418 19.5823 28.741 20.2251 29.8322 22.0995C30.9349 23.9938 30.2828 26.4239 28.3798 27.5116L27.8036 27.8409C28.0683 29.2684 28.0683 30.7316 27.8036 32.1591L28.3794 32.4882C30.2826 33.576 30.9348 36.0063 29.8319 37.9009C28.7409 39.7753 26.342 40.4183 24.4597 39.3409L23.8294 38.9801C22.7163 39.9234 21.4372 40.6554 20.0564 41.1392V41.7771ZM14.7592 42.125C14.7592 42.6773 15.2069 43.125 15.7592 43.125H16.4078C16.9601 43.125 17.4078 42.6773 17.4078 42.125V39.9283C17.4078 39.4715 17.7173 39.0728 18.1598 38.9595L18.4024 38.8974C20.0339 38.4786 21.519 37.6258 22.6971 36.4312L22.8756 36.2511C23.1944 35.9293 23.6897 35.862 24.0828 36.087L26.0286 37.2008C26.5053 37.4737 27.1129 37.311 27.3894 36.8363L27.7069 36.2913C27.9864 35.8115 27.8215 35.1959 27.3396 34.9201L25.4199 33.8214C25.0227 33.594 24.8305 33.126 24.9534 32.6851L25.0173 32.4557C25.4657 30.8452 25.4657 29.1443 25.0173 27.5338L24.9534 27.3044C24.8305 26.8635 25.0227 26.3955 25.4199 26.1681L27.3396 25.0694C27.8215 24.7936 27.9864 24.178 27.7069 23.6982L27.39 23.1541C27.1132 22.6791 26.5049 22.5165 26.0281 22.7902L24.0806 23.908C23.6886 24.133 23.1943 24.067 22.875 23.747L22.6971 23.5688C21.5183 22.3761 20.0333 21.5252 18.4024 21.1078L18.155 21.0432C17.7149 20.9282 17.4078 20.5306 17.4078 20.0757V17.875C17.4078 17.3227 16.9601 16.875 16.4078 16.875H15.7592C15.2069 16.875 14.7592 17.3227 14.7592 17.875V20.0717C14.7592 20.5285 14.4497 20.9272 14.0072 21.0405L13.7646 21.1026C12.1331 21.5214 10.648 22.3742 9.4699 23.5688L9.29202 23.7483C8.97293 24.0704 8.47708 24.1375 8.08386 23.9118L6.13886 22.7955C5.66205 22.5218 5.05374 22.6843 4.77701 23.1594L4.46008 23.7034C4.18057 24.1832 4.34549 24.7989 4.82742 25.0747L6.74705 26.1733C7.1443 26.4007 7.33648 26.8687 7.21363 27.3097L7.14971 27.5391C6.70124 29.1496 6.70124 30.8504 7.14971 32.4609L7.21363 32.6903C7.33648 33.1313 7.1443 33.5993 6.74705 33.8267L4.82742 34.9253C4.34549 35.2011 4.18057 35.8168 4.46008 36.2966L4.77758 36.8416C5.05409 37.3162 5.6617 37.479 6.13844 37.2061L8.08421 36.0923C8.47732 35.8672 8.97259 35.9345 9.29139 36.2563L9.4699 36.4365C10.6487 37.6291 12.1336 38.48 13.7646 38.8974L14.0072 38.9595C14.4497 39.0728 14.7592 39.4715 14.7592 39.9283V42.125ZM16.0835 35.25C15.0358 35.25 14.0116 34.9421 13.1405 34.3652C12.2694 33.7883 11.5904 32.9684 11.1895 32.0091C10.7886 31.0498 10.6837 29.9942 10.888 28.9758C11.0924 27.9574 11.597 27.0219 12.3378 26.2877C13.0786 25.5535 14.0225 25.0534 15.0501 24.8509C16.0776 24.6483 17.1427 24.7523 18.1107 25.1496C19.0786 25.547 19.9059 26.2199 20.488 27.0833C21.0701 27.9466 21.3807 28.9616 21.3807 30C21.3807 31.3924 20.8226 32.7277 19.8292 33.7123C18.8358 34.6969 17.4884 35.25 16.0835 35.25ZM16.0835 27.375C15.5596 27.375 15.0476 27.529 14.612 27.8174C14.1764 28.1058 13.837 28.5158 13.6365 28.9955C13.436 29.4751 13.3836 30.0029 13.4858 30.5121C13.588 31.0213 13.8402 31.489 14.2106 31.8562C14.5811 32.2233 15.053 32.4733 15.5668 32.5746C16.0806 32.6758 16.6131 32.6239 17.0971 32.4252C17.581 32.2265 17.9947 31.8901 18.2857 31.4584C18.5768 31.0267 18.7321 30.5192 18.7321 30C18.7321 29.3038 18.4531 28.6361 17.9564 28.1438C17.4596 27.6516 16.786 27.375 16.0835 27.375Z" fill="#3BB4D1"/>
<path d="M20.0564 41.7771C20.0564 43.9713 18.2777 45.75 16.0835 45.75C13.8893 45.75 12.1106 43.9713 12.1106 41.7771V41.1392C10.7297 40.655 9.45063 39.9226 8.33762 38.9788L7.70724 39.3398C5.82515 40.4177 3.42594 39.7749 2.33481 37.9005C1.23208 36.0062 1.8842 33.5761 3.7872 32.4884L4.36337 32.1591C4.09865 30.7316 4.09865 29.2684 4.36337 27.8409L3.7872 27.5116C1.8842 26.4239 1.23208 23.9938 2.33481 22.0995C3.42594 20.2251 5.82515 19.5823 7.70724 20.6602L8.33762 21.0212C9.45063 20.0774 10.7297 19.345 12.1106 18.8608V18.2229C12.1106 16.0287 13.8893 14.25 16.0835 14.25C18.2777 14.25 20.0564 16.0287 20.0564 18.2229V18.8608C21.4373 19.345 22.7164 20.0774 23.8294 21.0212L24.4598 20.6602C26.3418 19.5823 28.741 20.2251 29.8322 22.0995C30.9349 23.9938 30.2828 26.4239 28.3798 27.5116L27.8036 27.8409C28.0683 29.2684 28.0683 30.7316 27.8036 32.1591L28.3794 32.4882C30.2826 33.576 30.9348 36.0063 29.8319 37.9009C28.7409 39.7753 26.342 40.4183 24.4597 39.3409L23.8294 38.9801C22.7163 39.9234 21.4372 40.6554 20.0564 41.1392V41.7771ZM14.7592 42.125C14.7592 42.6773 15.2069 43.125 15.7592 43.125H16.4078C16.9601 43.125 17.4078 42.6773 17.4078 42.125V39.9283C17.4078 39.4715 17.7173 39.0728 18.1598 38.9595L18.4024 38.8974C20.0339 38.4786 21.519 37.6258 22.6971 36.4312L22.8756 36.2511C23.1944 35.9293 23.6897 35.862 24.0828 36.087L26.0286 37.2008C26.5053 37.4737 27.1129 37.311 27.3894 36.8363L27.7069 36.2913C27.9864 35.8115 27.8215 35.1959 27.3396 34.9201L25.4199 33.8214C25.0227 33.594 24.8305 33.126 24.9534 32.6851L25.0173 32.4557C25.4657 30.8452 25.4657 29.1443 25.0173 27.5338L24.9534 27.3044C24.8305 26.8635 25.0227 26.3955 25.4199 26.1681L27.3396 25.0694C27.8215 24.7936 27.9864 24.178 27.7069 23.6982L27.39 23.1541C27.1132 22.6791 26.5049 22.5165 26.0281 22.7902L24.0806 23.908C23.6886 24.133 23.1943 24.067 22.875 23.747L22.6971 23.5688C21.5183 22.3761 20.0333 21.5252 18.4024 21.1078L18.155 21.0432C17.7149 20.9282 17.4078 20.5306 17.4078 20.0757V17.875C17.4078 17.3227 16.9601 16.875 16.4078 16.875H15.7592C15.2069 16.875 14.7592 17.3227 14.7592 17.875V20.0717C14.7592 20.5285 14.4497 20.9272 14.0072 21.0405L13.7646 21.1026C12.1331 21.5214 10.648 22.3742 9.4699 23.5688L9.29202 23.7483C8.97293 24.0704 8.47708 24.1375 8.08386 23.9118L6.13886 22.7955C5.66205 22.5218 5.05374 22.6843 4.77701 23.1594L4.46008 23.7034C4.18057 24.1832 4.34549 24.7989 4.82742 25.0747L6.74705 26.1733C7.1443 26.4007 7.33648 26.8687 7.21363 27.3097L7.14971 27.5391C6.70124 29.1496 6.70124 30.8504 7.14971 32.4609L7.21363 32.6903C7.33648 33.1313 7.1443 33.5993 6.74705 33.8267L4.82742 34.9253C4.34549 35.2011 4.18057 35.8168 4.46008 36.2966L4.77758 36.8416C5.05409 37.3162 5.6617 37.479 6.13844 37.2061L8.08421 36.0923C8.47732 35.8672 8.97259 35.9345 9.29139 36.2563L9.4699 36.4365C10.6487 37.6291 12.1336 38.48 13.7646 38.8974L14.0072 38.9595C14.4497 39.0728 14.7592 39.4715 14.7592 39.9283V42.125ZM16.0835 35.25C15.0358 35.25 14.0116 34.9421 13.1405 34.3652C12.2694 33.7883 11.5904 32.9684 11.1895 32.0091C10.7886 31.0498 10.6837 29.9942 10.888 28.9758C11.0924 27.9574 11.597 27.0219 12.3378 26.2877C13.0786 25.5535 14.0225 25.0534 15.0501 24.8509C16.0776 24.6483 17.1427 24.7523 18.1107 25.1496C19.0786 25.547 19.9059 26.2199 20.488 27.0833C21.0701 27.9466 21.3807 28.9616 21.3807 30C21.3807 31.3924 20.8226 32.7277 19.8292 33.7123C18.8358 34.6969 17.4884 35.25 16.0835 35.25ZM16.0835 27.375C15.5596 27.375 15.0476 27.529 14.612 27.8174C14.1764 28.1058 13.837 28.5158 13.6365 28.9955C13.436 29.4751 13.3836 30.0029 13.4858 30.5121C13.588 31.0213 13.8402 31.489 14.2106 31.8562C14.5811 32.2233 15.053 32.4733 15.5668 32.5746C16.0806 32.6758 16.6131 32.6239 17.0971 32.4252C17.581 32.2265 17.9947 31.8901 18.2857 31.4584C18.5768 31.0267 18.7321 30.5192 18.7321 30C18.7321 29.3038 18.4531 28.6361 17.9564 28.1438C17.4596 27.6516 16.786 27.375 16.0835 27.375Z" stroke="#AEC6D0"/>
<path fill-rule="evenodd" clip-rule="evenodd" d="M33.1911 21.1285C33.8401 22.1459 35.1534 22.5077 36.2318 21.966L43.58 18.2747C45.1629 20.5664 47.5138 22.2144 50.2064 22.9195C52.899 23.6247 55.7548 23.3404 58.256 22.1182C60.7571 20.896 62.7378 18.8169 63.8389 16.2579C64.9399 13.699 65.0883 10.8297 64.2572 8.17063C63.4261 5.51152 61.6704 3.23869 59.3088 1.76441C56.9471 0.290138 54.1359 -0.287935 51.3849 0.135052C48.634 0.558039 46.1256 1.95407 44.3148 4.06991C42.5039 6.18576 41.5106 8.88127 41.5149 11.6675C41.5255 12.327 41.5923 12.9843 41.7147 13.6324L34.052 17.7949C32.8527 18.4463 32.4572 19.9779 33.1911 21.1285ZM56.8772 6.12276C55.7817 5.39047 54.4938 4.99986 53.1765 5.00036C51.411 5.00234 49.7185 5.70549 48.4704 6.95547C47.2222 8.20544 46.5205 9.90011 46.5192 11.6675C46.5192 12.9863 46.9098 14.2754 47.6417 15.3718C48.3736 16.4683 49.4139 17.3228 50.631 17.8274C51.848 18.3319 53.1872 18.4638 54.4792 18.2064C55.7711 17.9489 56.9578 17.3137 57.8891 16.381C58.8204 15.4483 59.4545 14.2601 59.7112 12.9667C59.9679 11.6732 59.8356 10.3326 59.3312 9.11437C58.8267 7.89615 57.9727 6.85506 56.8772 6.12276Z" fill="#3BB4D1"/>
<path fill-rule="evenodd" clip-rule="evenodd" d="M53.1765 36.6662C51.2884 36.6678 49.4291 37.1292 47.759 38.0107C46.0888 38.8922 44.658 40.1673 43.59 41.7259L36.2212 37.6981C35.1558 37.1157 33.8216 37.4512 33.1584 38.4683C32.4359 39.5762 32.7819 41.0628 33.9194 41.7378L41.7222 46.3682C41.602 47.0157 41.536 47.6721 41.5249 48.3306C41.5244 50.6383 42.2075 52.8943 43.4879 54.8133C44.7683 56.7323 46.5884 58.2281 48.718 59.1114C50.8476 59.9948 53.1911 60.226 55.452 59.7759C57.7129 59.3259 59.7897 58.2146 61.4197 56.5828C63.0497 54.9511 64.1597 52.872 64.6093 50.6086C65.0589 48.3452 64.8279 45.9992 63.9455 43.8672C63.0631 41.7353 61.569 39.9132 59.6521 38.6314C57.7352 37.3496 55.4817 36.6657 53.1765 36.6662ZM49.4765 53.8741C50.5717 54.6067 51.8593 54.9978 53.1765 54.9978C54.9424 54.9964 56.6356 54.2936 57.8843 53.0435C59.1329 51.7935 59.835 50.0984 59.8364 48.3306C59.8364 47.012 59.4458 45.7229 58.714 44.6265C57.9822 43.5301 56.942 42.6756 55.7251 42.171C54.5082 41.6663 53.1691 41.5343 51.8772 41.7916C50.5853 42.0488 49.3987 42.6838 48.4673 43.6162C47.5359 44.5486 46.9016 45.7366 46.6446 47.0299C46.3876 48.3232 46.5195 49.6638 47.0236 50.882C47.5277 52.1003 48.3813 53.1415 49.4765 53.8741Z" fill="#3BB4D1"/>
</svg>
