<svg width="61" height="60" viewBox="0 0 61 60" fill="none" xmlns="http://www.w3.org/2000/svg">
<path d="M50.3335 0C47.6813 0 45.1378 1.05357 43.2624 2.92893C41.3871 4.8043 40.3335 7.34784 40.3335 10C40.3335 10.663 40.5969 11.2989 41.0657 11.7678C41.5346 12.2366 42.1705 12.5 42.8335 12.5C43.4965 12.5 44.1324 12.2366 44.6013 11.7678C45.0701 11.2989 45.3335 10.663 45.3335 10C45.3335 8.67392 45.8603 7.40215 46.798 6.46447C47.7356 5.52678 49.0074 5 50.3335 5C51.6596 5 52.9313 5.52678 53.869 6.46447C54.8067 7.40215 55.3335 8.67392 55.3335 10V37.565C53.1825 35.9105 50.5472 35.0092 47.8335 35C45.7865 35.0009 43.771 35.5045 41.9642 36.4665C40.1574 37.4286 38.6144 38.8196 37.471 40.5175C36.5436 39.5627 35.4341 38.8036 34.2081 38.2853C32.9821 37.767 31.6646 37.4999 30.3335 37.4999C29.0024 37.4999 27.6849 37.767 26.4589 38.2853C25.2329 38.8036 24.1234 39.5627 23.196 40.5175C22.0525 38.8196 20.5096 37.4286 18.7028 36.4665C16.8959 35.5045 14.8805 35.0009 12.8335 35C10.1198 35.0092 7.48447 35.9105 5.3335 37.565V10C5.3335 8.67392 5.86028 7.40215 6.79796 6.46447C7.73564 5.52678 9.00741 5 10.3335 5C11.6596 5 12.9313 5.52678 13.869 6.46447C14.8067 7.40215 15.3335 8.67392 15.3335 10C15.3335 10.663 15.5969 11.2989 16.0657 11.7678C16.5346 12.2366 17.1705 12.5 17.8335 12.5C18.4965 12.5 19.1324 12.2366 19.6013 11.7678C20.0701 11.2989 20.3335 10.663 20.3335 10C20.3335 7.34784 19.2799 4.8043 17.4046 2.92893C15.5292 1.05357 12.9857 0 10.3335 0C7.68133 0 5.13779 1.05357 3.26243 2.92893C1.38706 4.8043 0.333496 7.34784 0.333496 10L0.333496 47.5C0.333496 50.8152 1.65046 53.9946 3.99466 56.3388C6.33887 58.683 9.51829 60 12.8335 60C16.1487 60 19.3281 58.683 21.6723 56.3388C24.0165 53.9946 25.3335 50.8152 25.3335 47.5C25.3335 46.1739 25.8603 44.9021 26.798 43.9645C27.7356 43.0268 29.0074 42.5 30.3335 42.5C31.6596 42.5 32.9313 43.0268 33.869 43.9645C34.8067 44.9021 35.3335 46.1739 35.3335 47.5C35.3335 50.8152 36.6505 53.9946 38.9947 56.3388C41.3389 58.683 44.5183 60 47.8335 60C51.1487 60 54.3281 58.683 56.6723 56.3388C59.0165 53.9946 60.3335 50.8152 60.3335 47.5V10C60.3335 7.34784 59.2799 4.8043 57.4046 2.92893C55.5292 1.05357 52.9857 0 50.3335 0V0ZM12.8335 55C11.3501 55 9.90009 54.5601 8.66672 53.736C7.43335 52.9119 6.47206 51.7406 5.9044 50.3701C5.33674 48.9997 5.18822 47.4917 5.47761 46.0368C5.767 44.582 6.4813 43.2456 7.5302 42.1967C8.57909 41.1478 9.91546 40.4335 11.3703 40.1441C12.8252 39.8547 14.3332 40.0032 15.7036 40.5709C17.0741 41.1386 18.2454 42.0999 19.0695 43.3332C19.8936 44.5666 20.3335 46.0166 20.3335 47.5C20.3335 49.4891 19.5433 51.3968 18.1368 52.8033C16.7303 54.2098 14.8226 55 12.8335 55ZM47.8335 55C46.3501 55 44.9001 54.5601 43.6667 53.736C42.4334 52.9119 41.4721 51.7406 40.9044 50.3701C40.3367 48.9997 40.1882 47.4917 40.4776 46.0368C40.767 44.582 41.4813 43.2456 42.5302 42.1967C43.5791 41.1478 44.9155 40.4335 46.3703 40.1441C47.8252 39.8547 49.3332 40.0032 50.7036 40.5709C52.0741 41.1386 53.2454 42.0999 54.0695 43.3332C54.8936 44.5666 55.3335 46.0166 55.3335 47.5C55.3335 49.4891 54.5433 51.3968 53.1368 52.8033C51.7303 54.2098 49.8226 55 47.8335 55Z" fill="#3BB4D1"/>
</svg>
