<svg width="61" height="60" viewBox="0 0 61 60" fill="none" xmlns="http://www.w3.org/2000/svg">
<path d="M39.6733 31.5207L39.6765 31.5176C41.5197 29.7462 42.4165 27.3185 42.4165 24.3C42.4165 21.2574 41.5364 18.8276 39.7187 17.0822C37.892 15.3281 35.127 14.5 31.5282 14.5H26.9878C23.9503 14.5 21.4878 16.9624 21.4878 20V30.278H21.2994C20.3029 30.278 19.4951 31.0858 19.4951 32.0823C19.4951 33.0789 20.3029 33.8867 21.2994 33.8867H21.4878V37.3214C21.4878 37.351 21.4639 37.375 21.4343 37.375L19.9464 37.375C18.9634 37.375 18.1665 38.1719 18.1665 39.1549C18.1665 40.1379 18.9634 40.9348 19.9464 40.9348H21.4337C21.4632 40.9348 21.4871 40.9587 21.4871 40.9882L21.4876 43.6712C21.4878 44.6813 22.3067 45.5 23.3168 45.5C24.327 45.5 25.146 44.681 25.146 43.6708V41.1957C25.146 41.0516 25.2628 40.9348 25.4068 40.9348H28.1602C29.0631 40.9348 29.795 40.2029 29.795 39.3C29.795 38.2368 28.9332 37.375 27.87 37.375H25.4208C25.269 37.375 25.146 37.2519 25.146 37.1002V33.8867H31.2889C34.7909 33.8867 37.8018 33.2883 39.6733 31.5206L39.6733 31.5207ZM26.646 30.278C25.8175 30.278 25.146 29.6064 25.146 28.778V19.7429C25.146 18.9144 25.8175 18.2429 26.646 18.2429H31.3162C33.9221 18.2429 35.6896 18.7924 36.7406 19.7789C37.8548 20.8246 38.7603 22.2853 38.7603 24.2563C38.7603 26.2646 37.8469 27.8255 36.7409 28.8637C35.7284 29.8121 33.9481 30.278 31.2889 30.278H26.646Z" fill="#3BB4D1" stroke="#AEC6D0"/>
<path d="M60.6665 30C60.6665 24.0666 58.907 18.2664 55.6106 13.3329C52.3141 8.39943 47.6288 4.55426 42.147 2.28363C36.6652 0.0129987 30.6332 -0.581101 24.8138 0.576455C18.9944 1.73401 13.6489 4.59123 9.45331 8.78681C5.25774 12.9824 2.40052 18.3279 1.24296 24.1473C0.0854025 29.9667 0.679503 35.9987 2.95013 41.4805C5.22076 46.9623 9.06593 51.6476 13.9994 54.9441C18.9329 58.2405 24.7331 60 30.6665 60H59.6665C60.2188 60 60.6665 59.5523 60.6665 59V30ZM55.6665 30V54C55.6665 54.5523 55.2188 55 54.6665 55H30.6665C25.722 55 20.8885 53.5338 16.7773 50.7867C12.666 48.0397 9.46172 44.1352 7.56953 39.5671C5.67734 34.9989 5.18225 29.9723 6.14688 25.1228C7.11152 20.2732 9.49253 15.8187 12.9888 12.3223C16.4852 8.82603 20.9397 6.44501 25.7893 5.48038C30.6388 4.51575 35.6654 5.01083 40.2336 6.90302C44.8017 8.79521 48.7062 11.9995 51.4532 16.1108C54.2003 20.222 55.6665 25.0555 55.6665 30Z" fill="#3BB4D1"/>
</svg>
