<svg width="61" height="60" viewBox="0 0 61 60" fill="none" xmlns="http://www.w3.org/2000/svg">
<path d="M45.618 22.733C45.6184 21.7242 45.4191 20.7252 45.0317 19.7937C44.6443 18.8622 44.0764 18.0166 43.3608 17.3056C41.8964 15.9082 39.9501 15.1286 37.926 15.1286C35.9018 15.1286 33.9555 15.9082 32.4911 17.3056L2.73116 47.0737C1.37287 48.5301 0.633068 50.4571 0.667665 52.4483C0.702262 54.4396 1.50856 56.3397 2.91662 57.7481C4.32468 59.1565 6.22453 59.9633 8.21575 59.9983C10.207 60.0334 12.134 59.294 13.5908 57.936L43.3608 28.1679C44.0776 27.4562 44.6461 26.6094 45.0335 25.6765C45.421 24.7436 45.6196 23.7431 45.618 22.733ZM10.0445 54.3947C9.53749 54.878 8.86393 55.1476 8.16349 55.1476C7.46305 55.1476 6.78949 54.878 6.28249 54.3947C5.78444 53.8953 5.50474 53.2189 5.50474 52.5136C5.50474 51.8084 5.78444 51.1319 6.28249 50.6326L25.06 31.8522C25.4506 31.4617 26.0838 31.4616 26.4743 31.8522L28.8342 34.2121C29.2249 34.6028 29.2247 35.2363 28.8338 35.6267L10.0445 54.3947ZM39.8195 24.6191L33.7863 30.6546C33.3953 31.0458 32.7611 31.0453 32.3707 30.6536L30.0208 28.2958C29.6314 27.9051 29.632 27.2727 30.0222 26.8827L36.06 20.8469C36.3004 20.5723 36.5947 20.3499 36.9245 20.1937C37.2543 20.0374 37.6128 19.9505 37.9776 19.9384C38.3424 19.9263 38.7058 19.9892 39.0452 20.1233C39.3847 20.2573 39.6931 20.4597 39.9512 20.7178C40.2093 20.9759 40.4116 21.2842 40.5457 21.6237C40.6797 21.9632 40.7427 22.3266 40.7306 22.6914C40.7184 23.0562 40.6316 23.4146 40.4753 23.7445C40.319 24.0744 40.0966 24.3686 39.822 24.609L39.8195 24.6191ZM12.6704 7.16049L16.5578 6.05193L17.6663 2.16445C17.8449 1.54066 18.2217 0.99198 18.7398 0.601382C19.2579 0.210785 19.8891 -0.000488281 20.538 -0.000488281C21.1868 -0.000488281 21.818 0.210785 22.3361 0.601382C22.8542 0.99198 23.2311 1.54066 23.4096 2.16445L24.5182 6.05193L28.4056 7.16049C29.0294 7.33908 29.578 7.71592 29.9686 8.23404C30.3592 8.75215 30.5705 9.38336 30.5705 10.0322C30.5705 10.6811 30.3592 11.3123 29.9686 11.8304C29.578 12.3485 29.0294 12.7253 28.4056 12.9039L24.5182 14.0125L23.4096 17.9C23.2311 18.5238 22.8542 19.0725 22.3361 19.463C21.818 19.8536 21.1868 20.0649 20.538 20.0649C19.8891 20.0649 19.2579 19.8536 18.7398 19.463C18.2217 19.0725 17.8449 18.5238 17.6663 17.9L16.5578 14.0125L12.6704 12.9039C12.0466 12.7253 11.4979 12.3485 11.1073 11.8304C10.7167 11.3123 10.5055 10.6811 10.5055 10.0322C10.5055 9.38336 10.7167 8.75215 11.1073 8.23404C11.4979 7.71592 12.0466 7.33908 12.6704 7.16049ZM58.5016 43.0006L54.6142 44.1091L53.5057 47.9966C53.3271 48.6204 52.9502 49.1691 52.4321 49.5597C51.914 49.9503 51.2828 50.1616 50.634 50.1616C49.9852 50.1616 49.354 49.9503 48.8359 49.5597C48.3178 49.1691 47.9409 48.6204 47.7623 47.9966L46.6538 44.1091L42.7664 43.0006C42.1426 42.822 41.594 42.4451 41.2034 41.927C40.8128 41.4089 40.6015 40.7777 40.6015 40.1289C40.6015 39.48 40.8128 38.8488 41.2034 38.3307C41.594 37.8126 42.1426 37.4357 42.7664 37.2571L46.6538 36.1486L47.7623 32.2611C47.9409 31.6373 48.3178 31.0886 48.8359 30.698C49.354 30.3074 49.9852 30.0962 50.634 30.0962C51.2828 30.0962 51.914 30.3074 52.4321 30.698C52.9502 31.0886 53.3271 31.6373 53.5057 32.2611L54.6142 36.1486L58.5016 37.2571C59.1254 37.4357 59.6741 37.8126 60.0646 38.3307C60.4552 38.8488 60.6665 39.48 60.6665 40.1289C60.6665 40.7777 60.4552 41.4089 60.0646 41.927C59.6741 42.4451 59.1254 42.822 58.5016 43.0006ZM45.0035 6.27013L48.4044 5.29952L49.38 1.89358C49.5388 1.35138 49.869 0.875241 50.3211 0.536506C50.7733 0.197771 51.323 0.0146857 51.888 0.0146857C52.453 0.0146857 53.0027 0.197771 53.4549 0.536506C53.907 0.875241 54.2372 1.35138 54.396 1.89358L55.3666 5.2945L58.7675 6.26512C59.3096 6.4239 59.7858 6.75412 60.1245 7.20628C60.4632 7.65844 60.6463 8.2082 60.6463 8.77317C60.6463 9.33814 60.4632 9.8879 60.1245 10.3401C59.7858 10.7922 59.3096 11.1224 58.7675 11.2812L55.3666 12.2518L54.396 15.6603C54.2372 16.2025 53.907 16.6786 53.4549 17.0174C53.0027 17.3561 52.453 17.5392 51.888 17.5392C51.323 17.5392 50.7733 17.3561 50.3211 17.0174C49.869 16.6786 49.5388 16.2025 49.38 15.6603L48.4094 12.2619L45.0035 11.2862C44.4613 11.1275 43.9852 10.7972 43.6465 10.3451C43.3078 9.89292 43.1247 9.34316 43.1247 8.77819C43.1247 8.21322 43.3078 7.66346 43.6465 7.2113C43.9852 6.75914 44.4613 6.42892 45.0035 6.27013Z" fill="#3BB4D1"/>
</svg>
